{"title":"Chain Letter UNRATED 2010.DvDRip.x264.Feel-Free","uid":6136006,"size":849446285,"categoryP":"video","categoryS":"movies","magnet":"?xt=urn:btih:4733363e8189ffa453ac7459571b73c5215cec5c&amp;dn=Chain+Letter+UNRATED+2010.DvDRip.x264.Feel-Free&amp;tr=udp%3A%2F%2Ftracker.openbittorrent.com%3A80&amp;tr=udp%3A%2F%2Fopen.demonii.com%3A1337&amp;tr=udp%3A%2F%2Ftracker.coppersurfer.tk%3A6969&amp;tr=udp%3A%2F%2Fexodus.desync.com%3A6969","seeders":0,"leechers":0,"uploader":"neon","files":10,"time":1296306494,"description":"Genre:Horror | Thriller\nLanguage:English\n &lt;a href=&quot; http://www.imdb.com/title/tt1148200/&quot; rel=&quot;nofollow&quot; target=&quot;_NEW&quot;&gt; http://www.imdb.com/title/tt1148200/&lt;/a&gt;\nSource:NTSC.DVDR-KART3LDVD\n\n\nFormat : MPEG-4\nFormat profile : Base Media\nCodec ID : isom\nFile size : 808 MiB\nDuration : 1h 29mn\nOverall bit rate : 1 269 Kbps\nMovie name : Chain.Letter.UNRATED.2010.DvDRip.x264.Feel-Free\n\n\nVideo\nFormat settings, CABAC : Yes\nFormat settings, ReFrames : 4 frames\nCodec ID : avc1\nCodec ID/Info : Advanced Video Coding\nDuration : 1h 29mn\nBit rate mode : Variable\nBit rate : 879 Kbps\nWidth : 720 pixels\nHeight : 384 pixels\nDisplay aspect ratio : 1.875\nFrame rate mode : Constant\nFrame rate : 29.970 fps\nColor space : YUV\nChroma subsampling : 4:2:0\nBit depth : 8 bits\nScan type : Progressive\nBits/(Pixel*Frame) : 0.106\nStream size : 563 MiB (70%)\nWriting library : x264\nE\nAudio\nID : 2\nFormat : AAC\nFormat/Info : Advanced Audio Codec\nFormat version : Version 4\nFormat profile : LC\nCodec ID : 40\nDuration : 1h 29mn\nBit rate mode : Variable\nBit rate : 384 Kbps\nChannel(s) : 6 channels\nChannel positions : Front: L C R, Side: L R, LFE\nSampling rate : 48.0 KHz\nStream size : 240 MiB (30%)\n\n\nPlot:\nA maniac murders teens when they refuse to forward chain mail\n\n &lt;a href=&quot;\nhttp://shareimage.org/images/e7nvlxpj0zm3qd2tq6.png&quot; rel=&quot;nofollow&quot; target=&quot;_NEW&quot;&gt;\nhttp://shareimage.org/images/e7nvlxpj0zm3qd2tq6.png&lt;/a&gt; &lt;a href=&quot;\nhttp://shareimage.org/images/qmdedw9p6ondadwp0wtw.png&quot; rel=&quot;nofollow&quot; target=&quot;_NEW&quot;&gt;\nhttp://shareimage.org/images/qmdedw9p6ondadwp0wtw.png&lt;/a&gt; &lt;a href=&quot;\nhttp://shareimage.org/images/zue1ohuqkvkm3unl0uwa.png&quot; rel=&quot;nofollow&quot; target=&quot;_NEW&quot;&gt;\nhttp://shareimage.org/images/zue1ohuqkvkm3unl0uwa.png&lt;/a&gt; &lt;a href=&quot;\nhttp://shareimage.org/images/eool8kbl3hsuiwdenftk.png&quot; rel=&quot;nofollow&quot; target=&quot;_NEW&quot;&gt;\nhttp://shareimage.org/images/eool8kbl3hsuiwdenftk.png&lt;/a&gt; &lt;a href=&quot;\nhttp://shareimage.org/images/od5m7rcm52ufwo6juy.png&quot; rel=&quot;nofollow&quot; target=&quot;_NEW&quot;&gt;\nhttp://shareimage.org/images/od5m7rcm52ufwo6juy.png&lt;/a&gt;","torrent":{"xt":"urn:btih:4733363e8189ffa453ac7459571b73c5215cec5c","amp;dn":"Chain+Letter+UNRATED+2010.DvDRip.x264.Feel-Free","amp;tr":["udp%3A%2F%2Ftracker.openbittorrent.com%3A80","udp%3A%2F%2Fopen.demonii.com%3A1337","udp%3A%2F%2Ftracker.coppersurfer.tk%3A6969","udp%3A%2F%2Fexodus.desync.com%3A6969"],"infoHash":"4733363e8189ffa453ac7459571b73c5215cec5c","infoHashBuffer":{"type":"Buffer","data":[71,51,54,62,129,137,255,164,83,172,116,89,87,27,115,197,33,92,236,92]},"announce":[],"urlList":[]}}